# xmcd
#
# Track frame offsets:
#	150
#	42662
#	72462
#	103798
#	131201
#	159040
#	181141
#	216615
#	249696
#	277114
#	324675
#
# Disc length: 4656 seconds
#
# Revision: 1
# Processed by: cddbd v1.5.1PL2 Copyright (c) Steve Scherf et al.
# Submitted via: audiograbber 1.83.01
#
DISCID=b2122e0b
DTITLE=Varios - 20 Años de Democracia - Vol 2
DYEAR=1900
DGENRE=
TTITLE0=1994
TTITLE1=1995
TTITLE2=1996
TTITLE3=1997
TTITLE4=1998
TTITLE5=1999
TTITLE6=2000
TTITLE7=2001
TTITLE8=2002
TTITLE9=2003
TTITLE10=Pista de Datos
EXTD=
EXTT0=
EXTT1=
EXTT2=
EXTT3=
EXTT4=
EXTT5=
EXTT6=
EXTT7=
EXTT8=
EXTT9=
EXTT10=
PLAYORDER=
